<?xml version="1.0" encoding="UTF-8" standalone="no"?>
<!-- Created with Inkscape (http://www.inkscape.org/) -->
<svg
   xmlns:svg="http://www.w3.org/2000/svg"
   xmlns="http://www.w3.org/2000/svg"
   version="1.0"
   width="176.1546"
   height="279.84189"
   id="svg2">
  <defs
     id="defs4" />
  <g
     transform="translate(-155.38039,-366.59033)"
     id="layer1">
    <path
       d="M 280.76662,393.88263 L 329.53499,368.59033 L 283.07992,617.01331 L 259.9924,644.43221 L 280.76662,393.88263 z"
       id="path3178"
       style="fill:#535d6c;fill-opacity:1;fill-rule:evenodd;stroke:#000000;stroke-width:4;stroke-linecap:butt;stroke-linejoin:round;stroke-miterlimit:4;stroke-dasharray:none;stroke-opacity:1" />
    <path
       d="M 157.38039,402.69593 L 280.76662,393.88263 L 329.53499,368.59033 L 194.61551,386.95789 L 157.38039,402.69593 z"
       id="path3176"
       style="fill:#939dac;fill-opacity:1;fill-rule:evenodd;stroke:#000000;stroke-width:4;stroke-linecap:butt;stroke-linejoin:round;stroke-miterlimit:4;stroke-dasharray:none;stroke-opacity:1" />
    <path
       d="M 157.38039,402.69593 L 280.76662,393.88263 L 259.9924,644.43221 L 192.6336,629.95322 L 157.38039,402.69593 z"
       id="path3174"
       style="fill:#6f7c91;fill-opacity:1;fill-rule:evenodd;stroke:#000000;stroke-width:4;stroke-linecap:butt;stroke-linejoin:round;stroke-miterlimit:4;stroke-dasharray:none;stroke-opacity:1" />
    <path
       d="M 266.91714,478.86804 A 45.640312,53.509331 0 1 1 175.63651,478.86804 A 45.640312,53.509331 0 1 1 266.91714,478.86804 z"
       transform="matrix(1,0,0,0.9574443,0.6295216,9.2881544)"
       id="path2385"
       style="opacity:1;fill:#4d4d4d;fill-opacity:1;fill-rule:nonzero;stroke:none;stroke-width:4.0879283;stroke-linecap:round;stroke-linejoin:round;stroke-miterlimit:4;stroke-dasharray:none;stroke-opacity:0.95999995" />
    <path
       d="M 266.91714,478.86804 A 45.640312,53.509331 0 1 1 175.63651,478.86804 A 45.640312,53.509331 0 1 1 266.91714,478.86804 z"
       transform="matrix(0.6275862,0,0,0.5633408,87.150325,307.73188)"
       id="path2389"
       style="opacity:1;fill:#4d4d4d;fill-opacity:1;fill-rule:nonzero;stroke:none;stroke-width:6.72725201;stroke-linecap:round;stroke-linejoin:round;stroke-miterlimit:4;stroke-dasharray:none;stroke-opacity:0.95999995" />
    <path
       d="M 261.20067,504.79734 A 45.640312,53.509331 0 0 1 199.3956,525.82684 L 221.27682,478.86804 z"
       transform="matrix(1,0,0,0.9574443,0.6295216,9.2881544)"
       id="path3206"
       style="opacity:1;fill:#666666;fill-opacity:1;fill-rule:nonzero;stroke:none;stroke-width:4.0879283;stroke-linecap:round;stroke-linejoin:round;stroke-miterlimit:4;stroke-dasharray:none;stroke-opacity:0.95999995" />
    <path
       d="M 266.91714,478.86804 A 45.640312,53.509331 0 1 1 175.63651,478.86804 A 45.640312,53.509331 0 1 1 266.91714,478.86804 z"
       transform="matrix(0.2413793,0,0,0.2355915,168.4947,354.96042)"
       id="path3161"
       style="opacity:1;fill:#cccccc;fill-opacity:1;fill-rule:nonzero;stroke:#000000;stroke-width:16.77375412;stroke-linecap:round;stroke-linejoin:round;stroke-miterlimit:4;stroke-dasharray:none;stroke-opacity:0.95999995" />
    <path
       d="M 258.86579,509.21766 A 45.640312,53.509331 0 0 1 202.49005,527.6339 L 221.27682,478.86804 z"
       transform="matrix(0.6275862,0,0,0.5633408,87.150325,307.73188)"
       id="path3210"
       style="opacity:1;fill:#666666;fill-opacity:1;fill-rule:nonzero;stroke:none;stroke-width:6.72725201;stroke-linecap:round;stroke-linejoin:round;stroke-miterlimit:4;stroke-dasharray:none;stroke-opacity:0.95999995" />
    <path
       d="M 266.91714,478.86804 A 45.640312,53.509331 0 1 1 175.63651,478.86804 A 45.640312,53.509331 0 1 1 266.91714,478.86804 z"
       transform="matrix(0.1524374,0,0,0.1409262,192.28974,510.0127)"
       id="path3165"
       style="opacity:1;fill:#cccccc;fill-opacity:1;fill-rule:nonzero;stroke:#000000;stroke-width:27.29092789;stroke-linecap:round;stroke-linejoin:round;stroke-miterlimit:4;stroke-dasharray:none;stroke-opacity:0.95999995" />
    <path
       d="M 226.62773,461.75125 A 4.4194174,3.0052037 0 1 1 217.7889,461.75125 A 4.4194174,3.0052037 0 1 1 226.62773,461.75125 z"
       transform="matrix(1.44,0,0,1.6470589,-98.301988,-296.12858)"
       id="path3186"
       style="opacity:1;fill:#ffffff;fill-opacity:1;fill-rule:nonzero;stroke:none;stroke-width:4;stroke-linecap:round;stroke-linejoin:round;stroke-miterlimit:4;stroke-dasharray:none;stroke-opacity:1" />
    <path
       d="M 226.62773,461.75125 A 4.4194174,3.0052037 0 1 1 217.7889,461.75125 A 4.4194174,3.0052037 0 1 1 226.62773,461.75125 z"
       transform="matrix(0.6768781,0,0,0.7647059,75.689459,222.80285)"
       id="path3190"
       style="opacity:1;fill:#ffffff;fill-opacity:1;fill-rule:nonzero;stroke:none;stroke-width:4;stroke-linecap:round;stroke-linejoin:round;stroke-miterlimit:4;stroke-dasharray:none;stroke-opacity:1" />
    <path
       d="M 266.91714,478.86804 A 45.640312,53.509331 0 1 1 175.63651,478.86804 A 45.640312,53.509331 0 1 1 266.91714,478.86804 z"
       transform="matrix(1,0,0,0.9574443,0.6295216,9.2881544)"
       id="path3208"
       style="opacity:1;fill:none;fill-opacity:1;fill-rule:nonzero;stroke:#000000;stroke-width:4.0879283;stroke-linecap:round;stroke-linejoin:round;stroke-miterlimit:4;stroke-dasharray:none;stroke-opacity:1" />
    <path
       d="M 266.91714,478.86804 A 45.640312,53.509331 0 1 1 175.63651,478.86804 A 45.640312,53.509331 0 1 1 266.91714,478.86804 z"
       transform="matrix(0.6275862,0,0,0.5633408,87.150325,307.73188)"
       id="path3212"
       style="opacity:1;fill:none;fill-opacity:1;fill-rule:nonzero;stroke:#000000;stroke-width:6.72725201;stroke-linecap:round;stroke-linejoin:round;stroke-miterlimit:4;stroke-dasharray:none;stroke-opacity:1" />
  </g>
</svg>
