<?xml version="1.0" encoding="UTF-8" standalone="no"?>
<!-- Created with Inkscape (http://www.inkscape.org/) -->

<svg
   xmlns:dc="http://purl.org/dc/elements/1.1/"
   xmlns:cc="http://creativecommons.org/ns#"
   xmlns:rdf="http://www.w3.org/1999/02/22-rdf-syntax-ns#"
   xmlns:svg="http://www.w3.org/2000/svg"
   xmlns="http://www.w3.org/2000/svg"
   xmlns:sodipodi="http://sodipodi.sourceforge.net/DTD/sodipodi-0.dtd"
   xmlns:inkscape="http://www.inkscape.org/namespaces/inkscape"
   version="1.0"
   width="374.35266"
   height="300.72592"
   id="svg2"
   inkscape:version="0.47 r22583"
   sodipodi:docname="Kopfhörerschaf.svg">
  <metadata
     id="metadata23">
    <rdf:RDF>
      <cc:Work
         rdf:about="">
        <dc:format>image/svg+xml</dc:format>
        <dc:type
           rdf:resource="http://purl.org/dc/dcmitype/StillImage" />
        <dc:title></dc:title>
      </cc:Work>
    </rdf:RDF>
  </metadata>
  <sodipodi:namedview
     pagecolor="#ffffff"
     bordercolor="#666666"
     borderopacity="1"
     objecttolerance="10"
     gridtolerance="10"
     guidetolerance="10"
     inkscape:pageopacity="0"
     inkscape:pageshadow="2"
     inkscape:window-width="1400"
     inkscape:window-height="977"
     id="namedview21"
     showgrid="false"
     inkscape:zoom="1.3138199"
     inkscape:cx="242.56345"
     inkscape:cy="80.588811"
     inkscape:window-x="-3"
     inkscape:window-y="-3"
     inkscape:window-maximized="1"
     inkscape:current-layer="svg2" />
  <defs
     id="defs4">
    <inkscape:perspective
       sodipodi:type="inkscape:persp3d"
       inkscape:vp_x="0 : 127.0168 : 1"
       inkscape:vp_y="0 : 1000 : 0"
       inkscape:vp_z="244.0735 : 127.0168 : 1"
       inkscape:persp3d-origin="122.03675 : 84.677867 : 1"
       id="perspective25" />
    <inkscape:perspective
       id="perspective2856"
       inkscape:persp3d-origin="0.5 : 0.33333333 : 1"
       inkscape:vp_z="1 : 0.5 : 1"
       inkscape:vp_y="0 : 1000 : 0"
       inkscape:vp_x="0 : 0.5 : 1"
       sodipodi:type="inkscape:persp3d" />
    <inkscape:perspective
       id="perspective2930"
       inkscape:persp3d-origin="0.5 : 0.33333333 : 1"
       inkscape:vp_z="1 : 0.5 : 1"
       inkscape:vp_y="0 : 1000 : 0"
       inkscape:vp_x="0 : 0.5 : 1"
       sodipodi:type="inkscape:persp3d" />
  </defs>
  <g
     id="g2965"
     transform="translate(108.34875,25.336345)"
     inkscape:export-filename="/matrix23/sync/gfx/Maren-Geburtstag 2012/fertig/Kopfhörerschaf.png"
     inkscape:export-xdpi="354"
     inkscape:export-ydpi="354">
    <path
       d="m 242.0735,122.07248 c 0.0198,66.30841 -53.7283,120.07248 -120.03675,120.07248 -66.30844,0 -120.0565,-53.76407 -120.03674,-120.07248 C 1.98021,55.76407 55.72831,2 122.03675,2 188.3452,2 242.09326,55.76407 242.0735,122.07248 z"
       id="path2383"
       style="fill:#ffffff;fill-opacity:1;fill-rule:nonzero;stroke:#000000;stroke-width:4;stroke-linecap:round;stroke-linejoin:round;stroke-miterlimit:4;stroke-opacity:1;stroke-dasharray:none" />
    <path
       d="M 122.1875,62.96371 C 66.869221,64.08477 43.000002,100.3076 43,144.77621 c 0,19.85112 10.824503,38.07474 25.15625,52.25 C 37.632065,184.09184 13.557923,158.88701 2.125,127.61996 c 2.9078698,63.6827 55.50938,114.5 119.90625,114.5 66.26029,1e-5 120.03125,-53.77101 120.03125,-120.03125 0,-14.46772 -2.55222,-28.33997 -7.25,-41.1875 0.0841,1.84281 0.15625,3.69904 0.15625,5.5625 0,32.53736 -12.98751,62.06161 -34.03125,83.6875 3.60583,-7.98795 5.75,-16.52125 5.75,-25.375 0,-45.17446 -24.62116,-81.8125 -81.84375,-81.8125 -0.89395,0 -1.77818,-0.0178 -2.65625,0 z"
       id="path3221"
       style="fill:#000000;fill-opacity:0.31372549;fill-rule:nonzero;stroke:none" />
    <path
       d="m 130.21703,242.64209 c 0,9.09078 14.66533,9.38135 32.73511,9.38135 18.06978,0 32.73512,0.69349 32.73512,-9.38135 0,-17.71594 -14.66534,-32.0941 -32.73512,-32.0941 -18.06978,0 -32.73511,14.37816 -32.73511,32.0941 z"
       id="path3172"
       style="fill:#333333;fill-opacity:1;fill-rule:nonzero;stroke:#000000;stroke-width:3.99999976;stroke-linecap:round;stroke-linejoin:round;stroke-miterlimit:4;stroke-opacity:1" />
    <path
       d="m 115.21922,242.64209 c 0,9.09078 -14.66533,9.38135 -32.73511,9.38135 -18.06978,0 -32.73512,0.69349 -32.73512,-9.38135 0,-17.71594 14.66534,-32.0941 32.73512,-32.0941 18.06978,0 32.73511,14.37816 32.73511,32.0941 z"
       id="path3329"
       style="fill:#333333;fill-opacity:1;fill-rule:nonzero;stroke:#000000;stroke-width:3.99999976;stroke-linecap:round;stroke-linejoin:round;stroke-miterlimit:4;stroke-opacity:1" />
    <path
       d="m 69.89368,251.4225 c 0,-16.36756 9.44283,-26.43991 9.44283,-26.43991 0,0 -3.77713,13.84948 -3.14761,26.43991 l -6.29522,0 z"
       id="path3331"
       style="fill:#000000;fill-opacity:0.31372549;fill-rule:evenodd;stroke:#000000;stroke-width:4;stroke-linecap:butt;stroke-linejoin:round;stroke-miterlimit:4;stroke-opacity:1;stroke-dasharray:none" />
    <path
       d="m 123.81648,195.03086 c -46.40343,-3.34987 -78.50119,11.43724 -78.50119,11.43724 0,0 10.24128,-0.24759 16.01714,0.6714 -10.83067,7.41256 -14.38166,22.12279 -14.38166,22.12279 0,0 12.07786,-12.9443 24.46017,-17.54853 -10.51293,13.98137 -11.91318,36.96048 -11.91318,36.96048 0,0 12.08966,-35.7251 34.67864,-43.12357 17.22122,-5.64038 35.43449,-2.32308 35.43449,-2.32308 0,0 36.11645,-2.49112 48.49082,19.07563 1.62923,0.77175 1.4682,-13.09772 -8.78484,-18.04747 l 27.63116,-1.43047 c -20.15254,-8.48528 -73.13155,-7.79442 -73.13155,-7.79442 z"
       id="path2399"
       style="fill:#44aa00;fill-opacity:1;fill-rule:evenodd;stroke:#000000;stroke-width:4;stroke-linecap:butt;stroke-linejoin:round;stroke-miterlimit:4;stroke-opacity:1;stroke-dasharray:none" />
    <path
       d="m 119.375,49.77621 c -30.12925,0.61059 -50.93167,11.65327 -63.625,28.75 -24.06444,-2.58779 -44.0625,23.625 -44.0625,23.625 0,0 18.89113,9.44632 32.0625,1.53125 -2.39923,8.71172 -3.5625,18.10595 -3.5625,27.90625 0,45.17448 56.1255,81.84375 81.84375,81.84375 26.71661,0 81.84375,-36.66927 81.84375,-81.84375 0,-9.8003 -1.16389,-19.19453 -3.5625,-27.90625 13.17137,7.91507 32.03125,-1.53125 32.03125,-1.53125 0,0 -19.97122,-26.20456 -44.03125,-23.625 -13.06166,-17.59499 -34.70768,-28.75 -66.28125,-28.75 -0.89395,0 -1.77818,-0.0178 -2.65625,0 z"
       id="path3155"
       style="fill:#333333;fill-opacity:1;fill-rule:nonzero;stroke:#000000;stroke-width:4;stroke-linecap:round;stroke-linejoin:round;stroke-miterlimit:4;stroke-opacity:1" />
    <path
       d="m 175.54257,251.4225 c 0,-16.36756 -9.44283,-26.43991 -9.44283,-26.43991 0,0 3.77713,13.84948 3.14761,26.43991 l 6.29522,0 z"
       id="path3174"
       style="fill:#000000;fill-opacity:0.31372549;fill-rule:evenodd;stroke:#000000;stroke-width:4;stroke-linecap:butt;stroke-linejoin:round;stroke-miterlimit:4;stroke-opacity:1;stroke-dasharray:none" />
    <path
       d="m 118.40722,119.60218 c 0.004,12.51895 -10.14383,22.66953 -22.66277,22.66953 -12.51895,0 -22.66651,-10.15058 -22.66278,-22.66953 -0.004,-12.51894 10.14383,-22.66952 22.66278,-22.66952 12.51894,0 22.6665,10.15058 22.66277,22.66952 z"
       id="path3157"
       style="fill:#ffffff;fill-opacity:1;fill-rule:nonzero;stroke:#000000;stroke-width:3.99999952;stroke-linecap:round;stroke-linejoin:round;stroke-miterlimit:4;stroke-opacity:1;stroke-dasharray:none" />
    <path
       d="m 171.13942,119.60218 c 0.004,12.51895 -10.14383,22.66953 -22.66277,22.66953 -12.51895,0 -22.66651,-10.15058 -22.66278,-22.66953 -0.004,-12.51894 10.14383,-22.66952 22.66278,-22.66952 12.51894,0 22.6665,10.15058 22.66277,22.66952 z"
       id="path3159"
       style="fill:#ffffff;fill-opacity:1;fill-rule:nonzero;stroke:#000000;stroke-width:3.99999952;stroke-linecap:round;stroke-linejoin:round;stroke-miterlimit:4;stroke-opacity:1;stroke-dasharray:none" />
    <path
       d="m 150.99473,123.60218 c 0.001,4.17298 -3.38127,7.55651 -7.55425,7.55651 -4.17298,0 -7.5555,-3.38353 -7.55425,-7.55651 -0.001,-4.17298 3.38127,-7.5565 7.55425,-7.5565 4.17298,0 7.5555,3.38352 7.55425,7.5565 z"
       id="path3161"
       style="fill:#000000;fill-opacity:1;fill-rule:nonzero;stroke:none" />
    <path
       d="m 108.96439,123.60218 c 0.001,4.17298 -3.38127,7.55651 -7.55425,7.55651 -4.17298,0 -7.5555,-3.38353 -7.55425,-7.55651 -0.001,-4.17298 3.38127,-7.5565 7.55425,-7.5565 4.17298,0 7.5555,3.38352 7.55425,7.5565 z"
       id="path3163"
       style="fill:#000000;fill-opacity:1;fill-rule:nonzero;stroke:none" />
    <path
       d="m 200.59375,104.77621 -1.875,2.65625 c 0.24888,3.07548 0.34375,6.20264 0.34375,9.375 0,45.17449 -55.12714,81.84375 -81.84375,81.84375 -20.70581,2e-5 -61.09673,-23.75565 -76.0625,-56.59375 7.61581,40.24628 57.1719,71.37501 80.875,71.375 26.71661,0 81.84375,-36.6693 81.84375,-81.84375 0,-9.39155 -1.07538,-18.41026 -3.28125,-26.8125 z"
       id="path3231"
       style="fill:#000000;fill-opacity:0.31372549;fill-rule:nonzero;stroke:none" />
    <path
       d="m 138.63219,184.23352 c -2.29272,3.97309 -6.50025,5.8386 -9.39677,4.16629 -2.89654,-1.67231 -3.38472,-6.2489 -1.09029,-10.22099 2.29273,-3.9731 6.50026,-5.83861 9.39679,-4.1663 2.89653,1.67231 3.38471,6.2489 1.09027,10.221 z"
       id="path2398"
       style="fill:#000000;fill-opacity:1;fill-rule:nonzero;stroke:none" />
    <path
       d="m 105.89514,184.23352 c 2.29272,3.97309 6.50025,5.8386 9.39677,4.16629 2.89654,-1.67231 3.38472,-6.2489 1.09029,-10.22099 -2.29273,-3.9731 -6.50026,-5.83861 -9.39679,-4.1663 -2.89653,1.67231 -3.38471,6.2489 -1.09027,10.221 z"
       id="path2412"
       style="fill:#000000;fill-opacity:1;fill-rule:nonzero;stroke:none" />
    <path
       d="m 46.90156,212.38348 c -3.29969,-0.34546 -6.27774,2.03968 -6.6232,5.33939 -0.0552,0.5277 -0.0194,1.04476 0.0581,1.5457 -2.78152,0.27262 -5.09905,2.48582 -5.40132,5.37306 -0.34546,3.29971 2.07403,6.24993 5.37372,6.59538 0.75259,0.0788 1.46564,0.002 2.15575,-0.18279 -0.16989,3.17347 2.17561,5.97779 5.37194,6.31242 3.29972,0.34544 6.24992,-2.07401 6.59538,-5.37374 0.0864,-0.82493 0.006,-1.63304 -0.22216,-2.37981 2.57267,-0.45549 4.66767,-2.56718 4.95317,-5.29429 0.34545,-3.29972 -2.07401,-6.24992 -5.37372,-6.59538 -0.5265,-0.0551 -1.04256,-0.05 -1.54246,0.027 -0.27261,-2.78152 -2.45798,-5.06471 -5.34523,-5.36698 z m 0.29299,11.90773 c 0.0399,0.40692 0.10311,0.80409 0.22148,1.18576 -0.1726,0.0306 -0.34586,0.0581 -0.51355,0.10333 0.0228,-0.4257 0.008,-0.85594 -0.0563,-1.26272 0.11437,-0.0112 0.23577,-0.009 0.3484,-0.0264 z"
       id="path3181"
       style="fill:#ffff00;fill-opacity:1;fill-rule:nonzero;stroke:#000000;stroke-width:4;stroke-linecap:round;stroke-linejoin:round;stroke-miterlimit:4;stroke-opacity:1;stroke-dasharray:none" />
    <path
       sodipodi:nodetypes="ccc"
       id="path2239"
       d="M 3.7644459,106.17915 C -20.508267,70.046324 -1.6856414,-24.508973 116.41169,-22.09684 c 130.13575,-2.272434 121.81305,59.247649 116.39304,123.3217"
       style="fill:none;stroke:#000000;stroke-width:6.35688448;stroke-linecap:butt;stroke-linejoin:miter;stroke-opacity:1" />
    <path
       transform="matrix(0.03900398,-0.3997063,0.42632443,0.04160142,-198.52558,245.20579)"
       sodipodi:end="6.2831853"
       sodipodi:start="3.1450833"
       d="m 307.97716,529.20379 c 0.16639,-47.66689 38.94292,-86.17366 86.60982,-86.00727 47.54928,0.16598 86.0078,38.75897 86.0078,86.30855 l -86.30907,0 z"
       sodipodi:ry="86.309074"
       sodipodi:rx="86.309074"
       sodipodi:cy="529.50507"
       sodipodi:cx="394.28571"
       id="path2235"
       style="fill:#cccccc;fill-opacity:0.99215686;stroke:#000000;stroke-width:13.07390785;stroke-linecap:round;stroke-linejoin:round;stroke-miterlimit:4;stroke-opacity:1;stroke-dasharray:none;stroke-dashoffset:0"
       sodipodi:type="arc" />
    <path
       sodipodi:nodetypes="cccccccccccccccccccccccccccccccccccccccccccccccccccccccccccccccccc"
       id="path2241"
       d="m -0.98607435,101.40897 c -11.38661965,9.01224 -24.18661165,18.53764 -26.39479965,30.73272 -2.664012,-14.05401 29.4121315,-16.90838 32.4143388,-2.86914 2.4620444,12.07424 -24.0798728,15.91525 -31.7294988,6.52012 -6.451844,4.45893 -0.549738,12.10377 8.292636,9.94342 11.2868167,4.34046 -5.50738,22.03867 -8.831094,9.23582 5.510715,-14.18455 -27.755848,-6.2237 -23.064774,1.58622 18.615455,-1.69588 7.667469,13.76618 -6.116892,11.52758 -13.382369,-1.37357 8.886152,-15.01246 -9.445007,-11.05958 -18.938646,2.20039 9.955834,12.25618 -8.214212,16.23138 -12.6214,4.70653 -18.327518,-7.24699 -6.474073,-10.64433 4.773771,-7.9012 -16.369633,1.69103 -15.310524,6.59645 -7.209656,9.41281 24.27193,14.55262 4.741341,21.83322 -16.565817,4.77774 -1.973249,-18.66021 -13.537837,-10.8144 -4.51723,11.22123 -5.68108,26.68603 11.104604,33.73252 15.528562,1.21663 -9.393124,-15.9547 8.236365,-11.50537 8.782656,5.70814 27.044365,-4.30683 32.679874,7.0048 9.379753,14.09852 -26.377655,11.89284 -26.02318,8.567 14.026386,9.0499 35.078404,5.57447 51.71558,8.76642 -8.606626,3.2891 -25.087214,-4.50953 -35.525463,0.6146 -13.45232,8.01978 13.163641,17.43298 24.571299,14.21464 5.732334,-1.88726 21.166348,-4.71099 12.228148,1.46263 -13.640846,-2.71662 -31.211594,6.93759 -14.494839,13.72096 14.050204,4.37672 34.0616546,7.97961 39.1494309,-5.28836 10.4849457,-6.96047 20.6623911,11.24223 2.9281965,9.13512 -15.9969994,-1.07892 -16.3279574,12.55119 -0.8301813,12.88713 14.0652259,0.81618 28.1251959,-1.45553 41.9841629,-2.82241 32.10954,-4.76911 62.013153,-15.05657 94.848873,-17.82846 17.29289,-4.37698 35.80152,-1.67949 53.61311,-2.16996 l 73.67979,4.85935 M -81.695168,207.09794 c -7.371215,5.64884 3.062516,6.03904 0,0 z m -3.124943,5.67233 c -1.951332,1.48448 3.28208,0.65628 0,0 z m 97.356856,46.7191 -0.104701,-0.006 0.104701,0.006 z m -1.488069,0.49649 c 0,0 0,0 0,0 z m -0.297613,0.0373 -0.105183,0 0.105183,0 z m -21.074764,5.52336 0.114474,0.072 -0.114474,-0.072 z m -0.762635,4.53044 0.02994,-0.0854 -0.02994,0.0854 z m 2.7529257,0.91849 -0.119486,-0.0218 0.119486,0.0218 z m 2.7901275,1.89903 0.3585708,-0.17897 -0.3585708,0.17897 z m 14.4156597,0.42205 0.042856,0.0576 -0.042856,-0.0576 z m -9.9142537,0.37233 0.27647705,-0.14434 -0.27647705,0.14434 z m 9.6724426,0.21102 -0.1184561,0.14712 0.1184561,-0.14712 z m 1.0416477,0.69508 0.1563722,-0.0518 -0.1563722,0.0518 z"
       style="fill:none;stroke:#000000;stroke-width:1.58922112;stroke-linecap:butt;stroke-linejoin:miter;stroke-opacity:1" />
    <path
       transform="matrix(0.04703979,0.39884044,-0.42540091,0.05017237,402.98811,-78.33053)"
       sodipodi:end="6.2831853"
       sodipodi:start="3.1450833"
       d="m 307.97716,529.20379 c 0.16639,-47.66689 38.94292,-86.17366 86.60982,-86.00727 47.54928,0.16598 86.0078,38.75897 86.0078,86.30855 l -86.30907,0 z"
       sodipodi:ry="86.309074"
       sodipodi:rx="86.309074"
       sodipodi:cy="529.50507"
       sodipodi:cx="394.28571"
       id="path2235-6"
       style="fill:#cccccc;fill-opacity:0.99215686;stroke:#000000;stroke-width:13.07390785;stroke-linecap:round;stroke-linejoin:round;stroke-miterlimit:4;stroke-opacity:1;stroke-dasharray:none;stroke-dashoffset:0"
       sodipodi:type="arc" />
  </g>
</svg>
